<svg xmlns="http://www.w3.org/2000/svg" version="1.1" xmlns:xlink="http://www.w3.org/1999/xlink" width="512" height="512" x="0" y="0" viewBox="0 0 512 512" style="enable-background:new 0 0 512 512" xml:space="preserve" class=""><g><path d="M389.468 256a16 16 0 0 1-16 16H272v101.467a16 16 0 0 1-32 0V272H138.533a16 16 0 1 1 0-32H240V138.533a16 16 0 0 1 32 0V240h101.468a16 16 0 0 1 16 16ZM512 90.182v331.636A90.284 90.284 0 0 1 421.818 512H90.183A90.285 90.285 0 0 1 0 421.818V90.182A90.285 90.285 0 0 1 90.183 0h331.635A90.284 90.284 0 0 1 512 90.182Zm-32 0A58.248 58.248 0 0 0 421.818 32H90.183A58.248 58.248 0 0 0 32 90.182v331.636A58.248 58.248 0 0 0 90.183 480h331.635A58.248 58.248 0 0 0 480 421.818Z" fill="#000000" opacity="1" data-original="#000000" class=""></path></g></svg>